<?xml version="1.0" encoding="UTF-8" standalone="no"?>
<!DOCTYPE svg PUBLIC "-//W3C//DTD SVG 1.1//EN" "http://www.w3.org/Graphics/SVG/1.1/DTD/svg11.dtd">
<svg xmlns="http://www.w3.org/2000/svg" version="1.1" viewBox="0.00 0.00 1024.00 519.00">
<g stroke-width="2.00" fill="none" stroke-linecap="butt">
<path stroke="#f8b495" vector-effect="non-scaling-stroke" d="
  M 17.22 154.40
  L 21.47 451.57
  A 0.93 0.92 7.0 0 0 22.16 452.45
  Q 193.96 497.33 368.75 464.18
  Q 373.45 463.28 403.56 457.12
  Q 412.59 455.27 420.17 453.17
  Q 425.96 451.56 436.75 449.04
  C 442.54 447.68 452.26 444.70 460.63 442.60
  Q 465.81 441.30 471.82 439.11
  Q 478.91 436.52 482.90 435.31
  Q 505.63 428.38 524.59 421.80
  Q 530.90 419.61 540.33 415.86"
/>
<path stroke="#bed6eb" vector-effect="non-scaling-stroke" d="
  M 540.33 415.86
  Q 616.64 445.74 695.28 462.13
  Q 755.13 474.61 818.08 477.65
  Q 830.26 478.24 846.92 478.31
  Q 868.07 478.38 875.76 478.14
  Q 929.25 476.42 982.58 467.51
  A 1.07 1.06 88.2 0 0 983.45 466.58
  L 997.79 336.49"
/>
<path stroke="#f8b495" vector-effect="non-scaling-stroke" d="
  M 997.79 336.49
  L 990.38 60.73
  A 0.57 0.57 0.0 0 0 989.90 60.19
  C 894.11 45.25 795.84 49.10 701.00 70.03
  Q 630.55 85.57 562.98 110.22
  Q 558.68 111.79 554.47 113.65"
/>
<path stroke="#bed6eb" vector-effect="non-scaling-stroke" d="
  M 554.47 113.65
  Q 553.46 113.76 553.12 113.63
  C 432.23 66.04 301.59 41.67 171.55 53.92
  Q 102.09 60.47 33.71 78.21
  A 1.37 1.36 -2.4 0 0 32.70 79.30
  Q 26.13 116.83 17.22 154.40"
/>
<path stroke="#b78b81" vector-effect="non-scaling-stroke" d="
  M 554.47 113.65
  Q 554.85 113.86 555.29 114.04
  Q 584.05 125.62 602.31 133.23
  Q 628.39 144.09 647.25 153.56
  Q 662.15 161.05 669.48 164.28
  Q 676.64 167.43 681.59 170.12
  Q 681.73 170.19 691.61 174.98
  Q 713.95 185.79 717.47 187.52
  Q 729.01 193.20 737.54 197.67
  Q 755.63 207.15 757.48 208.01
  C 760.06 209.23 762.66 211.11 765.14 212.36
  Q 779.50 219.55 792.59 226.68
  C 842.21 253.71 888.99 278.86 935.32 303.99
  Q 966.27 320.78 997.79 336.49"
/>
<path stroke="#b78b81" vector-effect="non-scaling-stroke" d="
  M 540.33 415.86
  Q 533.54 413.03 526.43 410.42
  C 521.59 408.65 517.89 406.35 513.36 404.88
  Q 508.25 403.22 503.39 401.16
  Q 445.62 376.72 388.67 348.41
  Q 375.26 341.75 365.00 336.29
  Q 352.84 329.83 341.39 324.08
  Q 337.32 322.04 299.94 302.25
  Q 286.74 295.26 258.78 279.90
  Q 241.32 270.31 213.88 255.61
  Q 182.41 238.77 178.32 236.40
  C 167.96 230.39 152.91 222.57 129.00 210.04
  Q 97.67 193.61 45.81 168.05
  Q 39.78 165.07 31.51 161.23
  Q 24.30 157.88 17.22 154.40"
/>
<path stroke="#bed6eb" vector-effect="non-scaling-stroke" d="
  M 336.63 314.59
  Q 337.60 254.33 337.75 212.57
  C 337.78 203.09 340.33 194.74 349.40 190.71
  C 358.56 186.63 370.13 189.82 378.96 194.87
  C 389.11 200.67 395.76 209.29 398.81 220.43
  Q 400.25 225.68 400.22 239.52
  Q 400.08 306.90 399.90 346.03
  A 1.76 1.75 -77.1 0 0 400.88 347.61
  Q 434.64 364.12 469.62 379.63
  A 0.45 0.45 0.0 0 0 470.25 379.22
  Q 470.38 331.03 470.32 250.50
  C 470.31 233.90 467.71 216.60 460.93 201.33
  C 447.57 171.28 421.67 154.15 390.22 146.35
  Q 362.56 139.48 339.17 153.88
  A 0.46 0.45 74.8 0 1 338.48 153.48
  L 339.51 61.88
  A 0.71 0.70 4.6 0 0 338.90 61.17
  Q 304.74 55.97 271.33 54.79
  A 0.87 0.87 0.0 0 0 270.43 55.64
  L 265.22 276.94
  A 2.16 2.16 0.0 0 0 266.39 278.91
  L 336.03 314.95
  A 0.41 0.41 0.0 0 0 336.63 314.59"
/>
<path stroke="#bed6eb" vector-effect="non-scaling-stroke" d="
  M 98.69 191.17
  A 0.49 0.49 0.0 0 0 99.39 190.78
  L 103.00 153.44
  A 0.57 0.56 10.6 0 1 103.72 152.95
  Q 127.42 159.75 150.88 167.38
  Q 173.35 174.70 196.32 177.62
  C 226.82 181.51 260.22 172.14 261.65 135.50
  Q 262.68 108.73 245.79 89.45
  C 226.51 67.46 195.69 60.83 167.74 61.77
  C 147.53 62.45 127.47 65.26 103.66 68.36
  Q 86.39 70.61 76.78 72.43
  Q 59.13 75.79 40.80 79.75
  A 2.47 2.45 -4.6 0 0 38.86 82.02
  Q 38.67 85.36 38.26 87.75
  Q 31.67 126.00 25.35 154.17
  Q 24.92 156.07 26.85 156.94
  Q 63.36 173.46 98.69 191.17"
/>
<path stroke="#bed6eb" vector-effect="non-scaling-stroke" d="
  M 491.04 95.60
  A 1.38 1.38 0.0 0 0 489.20 96.90
  L 489.20 387.48
  A 1.38 1.38 0.0 0 0 490.07 388.77
  L 558.02 415.64
  A 1.38 1.38 0.0 0 0 559.91 414.36
  L 559.91 120.92
  A 1.38 1.38 0.0 0 0 558.99 119.61
  L 491.04 95.60"
/>
<path stroke="#bed6eb" vector-effect="non-scaling-stroke" d="
  M 641.94 351.38
  A 0.50 0.49 3.9 0 1 642.59 350.82
  Q 713.17 375.08 785.52 392.60
  A 1.05 1.04 12.0 0 0 786.80 391.78
  C 792.76 360.23 778.26 329.91 757.85 306.64
  Q 724.25 268.35 676.03 251.20
  C 643.22 239.53 602.67 238.30 582.31 272.06
  Q 575.97 282.56 573.75 294.51
  C 563.38 350.39 592.35 406.32 637.95 437.28
  Q 666.39 456.59 700.26 459.66
  Q 715.13 461.01 727.90 458.61
  C 749.70 454.53 770.79 443.50 785.47 426.45
  A 1.41 1.41 0.0 0 0 785.26 424.41
  L 759.82 404.68
  A 0.81 0.80 53.3 0 0 759.04 404.56
  C 740.85 411.41 721.19 413.61 701.79 409.74
  C 671.93 403.77 647.71 381.51 641.94 351.38"
/>
<path stroke="#bed6eb" vector-effect="non-scaling-stroke" d="
  M 978.71 463.81
  C 975.36 459.80 969.66 456.51 966.55 453.70
  Q 945.08 434.29 927.10 411.69
  A 1.14 1.13 -39.6 0 1 927.25 410.13
  Q 953.18 387.47 983.27 372.46
  A 0.31 0.31 0.0 0 0 983.22 371.89
  L 923.49 352.25
  A 0.71 0.70 -53.9 0 0 922.86 352.35
  Q 903.97 366.71 887.21 383.60
  A 0.55 0.55 0.0 0 1 886.41 383.58
  Q 885.58 382.63 884.56 380.95
  Q 868.15 353.87 855.49 329.77
  Q 853.95 326.85 852.59 326.34
  Q 834.88 319.67 782.69 299.06
  Q 781.00 298.40 779.28 297.42
  A 0.38 0.37 -83.2 0 0 778.74 297.85
  Q 779.01 298.83 779.64 300.11
  Q 803.79 349.00 830.95 395.88
  A 0.71 0.70 51.4 0 1 830.86 396.71
  Q 800.70 429.88 773.34 466.96
  A 0.73 0.73 0.0 0 0 773.84 468.12
  Q 801.93 471.55 830.87 472.61
  A 2.68 2.67 -70.2 0 0 833.09 471.56
  Q 851.46 447.59 871.71 425.50
  A 0.59 0.58 -40.4 0 1 872.63 425.57
  Q 888.08 448.95 906.20 470.86
  A 3.18 3.16 -20.5 0 0 908.72 472.00
  Q 911.15 471.94 917.25 471.50
  Q 948.56 469.28 978.24 465.04
  A 0.76 0.75 66.1 0 0 978.71 463.81"
/>
<path stroke="#f8b495" vector-effect="non-scaling-stroke" d="
  M 641.90 128.43
  Q 715.04 143.87 786.63 166.90
  A 0.87 0.87 0.0 0 0 787.75 166.22
  C 791.99 141.96 773.42 122.12 753.21 112.55
  C 733.99 103.44 713.08 100.84 691.23 101.06
  Q 666.33 101.30 643.25 104.59
  Q 604.53 110.11 571.64 115.26
  A 0.56 0.55 66.7 0 0 571.29 116.15
  Q 571.46 116.36 571.95 116.55
  Q 600.08 127.43 627.38 141.36
  Q 645.00 150.35 658.87 157.28
  Q 660.81 158.26 663.48 159.44
  C 666.80 160.91 669.25 162.61 672.95 164.21
  C 678.02 166.42 682.59 169.07 687.80 171.30
  C 695.72 174.68 705.00 179.71 710.72 182.28
  Q 729.96 190.92 751.76 194.69
  C 763.76 196.77 777.57 196.57 788.11 190.63
  A 0.96 0.95 -41.9 0 0 788.20 189.02
  L 762.25 170.45
  A 4.35 4.34 -26.9 0 0 759.80 169.65
  Q 740.90 169.44 721.66 164.31
  Q 689.21 155.66 657.70 139.54
  Q 651.47 136.36 643.86 131.27
  Q 642.45 130.32 641.58 128.89
  A 0.31 0.31 0.0 0 1 641.90 128.43"
/>
<path stroke="#f8b495" vector-effect="non-scaling-stroke" d="
  M 993.54 327.70
  Q 993.48 327.32 993.30 326.95
  Q 963.68 266.03 930.83 208.81
  A 0.53 0.52 -39.4 0 1 930.89 208.21
  Q 957.49 176.08 982.68 140.55
  A 0.80 0.80 0.0 0 0 982.21 139.31
  L 922.02 125.13
  A 1.54 1.54 0.0 0 0 920.40 125.75
  Q 904.86 148.06 888.13 169.10
  A 0.41 0.41 0.0 0 1 887.48 169.08
  Q 886.09 167.19 884.86 165.14
  Q 868.95 138.77 851.04 113.90
  A 3.48 3.46 -13.7 0 0 848.72 112.50
  Q 812.54 107.45 775.14 104.76
  A 0.33 0.33 0.0 0 0 774.89 105.33
  C 796.39 126.47 815.38 150.79 832.41 175.95
  A 1.13 1.12 -38.0 0 1 832.22 177.42
  Q 814.15 193.29 794.30 205.54
  Q 786.25 210.52 777.99 214.33
  A 0.46 0.46 0.0 0 0 777.97 215.15
  L 838.79 246.63
  A 1.31 1.30 39.5 0 0 840.20 246.50
  Q 859.18 231.63 876.03 214.58
  A 0.88 0.87 -37.8 0 1 877.40 214.75
  Q 898.47 250.70 916.92 287.19
  A 5.80 5.75 0.5 0 0 919.42 289.71
  L 993.24 327.92
  A 0.21 0.21 0.0 0 0 993.54 327.70"
/>
<path stroke="#bed6eb" vector-effect="non-scaling-stroke" d="
  M 109.40 93.16
  A 0.77 0.76 2.5 0 0 108.65 93.84
  L 105.36 127.85
  A 1.09 1.09 0.0 0 0 106.26 129.03
  Q 114.26 130.42 148.76 136.71
  C 158.41 138.47 175.66 139.74 183.33 131.49
  Q 186.70 127.87 187.40 124.25
  C 191.32 104.05 171.94 95.84 155.77 94.20
  C 140.85 92.68 124.98 93.10 109.40 93.16"
/>
<path stroke="#f8b495" vector-effect="non-scaling-stroke" d="
  M 722.93 134.02
  C 722.32 128.57 716.15 123.44 711.54 121.18
  Q 702.88 116.93 692.47 115.53
  Q 676.62 113.40 660.26 115.05
  C 654.62 115.62 645.97 116.91 641.51 120.61
  A 0.50 0.49 -61.3 0 0 641.76 121.48
  Q 682.35 126.53 722.34 134.56
  A 0.49 0.49 0.0 0 0 722.93 134.02"
/>
<path stroke="#f8b495" vector-effect="non-scaling-stroke" d="
  M 24.80 170.16
  L 29.14 446.44
  A 1.11 1.09 -83.9 0 0 29.97 447.49
  Q 66.72 456.75 104.54 462.96
  A 0.63 0.63 0.0 0 0 105.27 462.32
  L 103.30 382.87
  A 0.42 0.41 -83.4 0 1 103.82 382.45
  Q 128.10 389.01 150.26 394.26
  C 173.33 399.73 197.02 401.07 220.25 395.56
  Q 233.98 392.30 244.93 384.73
  C 271.01 366.70 259.75 333.46 245.11 312.67
  C 226.57 286.33 201.54 264.18 174.62 246.14
  Q 158.97 235.65 129.59 220.83
  Q 75.60 193.59 41.35 177.43
  Q 25.42 169.91 25.31 169.85
  A 0.35 0.35 0.0 0 0 24.80 170.16"
/>
<path stroke="#f8b495" vector-effect="non-scaling-stroke" d="
  M 265.31 287.02
  L 271.59 471.63
  A 0.65 0.65 0.0 0 0 272.28 472.26
  Q 306.73 470.35 340.40 465.64
  A 1.22 1.22 0.0 0 0 341.44 464.39
  Q 340.24 431.51 339.57 412.70
  Q 339.37 407.16 340.09 405.35
  C 342.75 398.59 352.98 397.02 359.52 397.28
  Q 373.56 397.83 388.43 403.10
  C 394.00 405.08 401.70 408.86 401.94 415.99
  Q 402.79 440.81 403.18 453.86
  A 0.43 0.42 -8.3 0 0 403.71 454.25
  C 412.34 452.01 421.02 450.44 428.44 448.52
  Q 460.97 440.09 461.08 440.06
  Q 468.50 437.77 470.43 437.05
  A 1.27 1.26 79.5 0 0 471.25 435.85
  Q 471.14 430.81 470.82 417.43
  Q 470.69 412.14 465.70 409.26
  Q 458.14 404.91 452.44 402.59
  Q 419.99 389.37 384.99 380.30
  C 369.95 376.41 353.99 374.43 338.96 377.70
  A 0.50 0.50 0.0 0 1 338.36 377.23
  L 336.57 324.40
  A 1.43 1.42 -77.6 0 0 335.80 323.18
  L 265.59 286.84
  A 0.19 0.19 0.0 0 0 265.31 287.02"
/>
<path stroke="#f8b495" vector-effect="non-scaling-stroke" d="
  M 100.40 259.37
  L 102.20 331.70
  A 1.44 1.44 0.0 0 0 103.19 333.04
  Q 123.03 339.58 136.24 344.02
  C 149.10 348.35 172.25 354.83 181.82 340.72
  Q 184.88 336.20 184.87 328.79
  C 184.85 307.46 168.85 292.07 151.57 281.96
  Q 145.50 278.41 134.27 273.50
  Q 126.72 270.19 100.92 259.01
  A 0.38 0.37 -79.5 0 0 100.40 259.37"
/>
<path stroke="#bed6eb" vector-effect="non-scaling-stroke" d="
  M 724.21 346.69
  Q 724.60 345.47 724.39 343.97
  Q 720.97 319.47 702.06 304.75
  C 687.90 293.71 660.96 284.42 648.46 303.55
  Q 644.47 309.65 642.58 317.78
  A 1.45 1.44 -74.1 0 0 643.52 319.47
  L 723.70 346.95
  A 0.40 0.39 -71.8 0 0 724.21 346.69"
/>
</g>
<path fill="#ffffff" d="
  M 1024.00 0.00
  L 1024.00 519.00
  L 0.00 519.00
  L 0.00 0.00
  L 1024.00 0.00
  Z
  M 17.22 154.40
  L 21.47 451.57
  A 0.93 0.92 7.0 0 0 22.16 452.45
  Q 193.96 497.33 368.75 464.18
  Q 373.45 463.28 403.56 457.12
  Q 412.59 455.27 420.17 453.17
  Q 425.96 451.56 436.75 449.04
  C 442.54 447.68 452.26 444.70 460.63 442.60
  Q 465.81 441.30 471.82 439.11
  Q 478.91 436.52 482.90 435.31
  Q 505.63 428.38 524.59 421.80
  Q 530.90 419.61 540.33 415.86
  Q 616.64 445.74 695.28 462.13
  Q 755.13 474.61 818.08 477.65
  Q 830.26 478.24 846.92 478.31
  Q 868.07 478.38 875.76 478.14
  Q 929.25 476.42 982.58 467.51
  A 1.07 1.06 88.2 0 0 983.45 466.58
  L 997.79 336.49
  L 990.38 60.73
  A 0.57 0.57 0.0 0 0 989.90 60.19
  C 894.11 45.25 795.84 49.10 701.00 70.03
  Q 630.55 85.57 562.98 110.22
  Q 558.68 111.79 554.47 113.65
  Q 553.46 113.76 553.12 113.63
  C 432.23 66.04 301.59 41.67 171.55 53.92
  Q 102.09 60.47 33.71 78.21
  A 1.37 1.36 -2.4 0 0 32.70 79.30
  Q 26.13 116.83 17.22 154.40
  Z"
/>
<path fill="#7cadd7" d="
  M 554.47 113.65
  Q 554.85 113.86 555.29 114.04
  Q 584.05 125.62 602.31 133.23
  Q 628.39 144.09 647.25 153.56
  Q 662.15 161.05 669.48 164.28
  Q 676.64 167.43 681.59 170.12
  Q 681.73 170.19 691.61 174.98
  Q 713.95 185.79 717.47 187.52
  Q 729.01 193.20 737.54 197.67
  Q 755.63 207.15 757.48 208.01
  C 760.06 209.23 762.66 211.11 765.14 212.36
  Q 779.50 219.55 792.59 226.68
  C 842.21 253.71 888.99 278.86 935.32 303.99
  Q 966.27 320.78 997.79 336.49
  L 983.45 466.58
  A 1.07 1.06 88.2 0 1 982.58 467.51
  Q 929.25 476.42 875.76 478.14
  Q 868.07 478.38 846.92 478.31
  Q 830.26 478.24 818.08 477.65
  Q 755.13 474.61 695.28 462.13
  Q 616.64 445.74 540.33 415.86
  Q 533.54 413.03 526.43 410.42
  C 521.59 408.65 517.89 406.35 513.36 404.88
  Q 508.25 403.22 503.39 401.16
  Q 445.62 376.72 388.67 348.41
  Q 375.26 341.75 365.00 336.29
  Q 352.84 329.83 341.39 324.08
  Q 337.32 322.04 299.94 302.25
  Q 286.74 295.26 258.78 279.90
  Q 241.32 270.31 213.88 255.61
  Q 182.41 238.77 178.32 236.40
  C 167.96 230.39 152.91 222.57 129.00 210.04
  Q 97.67 193.61 45.81 168.05
  Q 39.78 165.07 31.51 161.23
  Q 24.30 157.88 17.22 154.40
  Q 26.13 116.83 32.70 79.30
  A 1.37 1.36 -2.4 0 1 33.71 78.21
  Q 102.09 60.47 171.55 53.92
  C 301.59 41.67 432.23 66.04 553.12 113.63
  Q 553.46 113.76 554.47 113.65
  Z
  M 336.63 314.59
  Q 337.60 254.33 337.75 212.57
  C 337.78 203.09 340.33 194.74 349.40 190.71
  C 358.56 186.63 370.13 189.82 378.96 194.87
  C 389.11 200.67 395.76 209.29 398.81 220.43
  Q 400.25 225.68 400.22 239.52
  Q 400.08 306.90 399.90 346.03
  A 1.76 1.75 -77.1 0 0 400.88 347.61
  Q 434.64 364.12 469.62 379.63
  A 0.45 0.45 0.0 0 0 470.25 379.22
  Q 470.38 331.03 470.32 250.50
  C 470.31 233.90 467.71 216.60 460.93 201.33
  C 447.57 171.28 421.67 154.15 390.22 146.35
  Q 362.56 139.48 339.17 153.88
  A 0.46 0.45 74.8 0 1 338.48 153.48
  L 339.51 61.88
  A 0.71 0.70 4.6 0 0 338.90 61.17
  Q 304.74 55.97 271.33 54.79
  A 0.87 0.87 0.0 0 0 270.43 55.64
  L 265.22 276.94
  A 2.16 2.16 0.0 0 0 266.39 278.91
  L 336.03 314.95
  A 0.41 0.41 0.0 0 0 336.63 314.59
  Z
  M 98.69 191.17
  A 0.49 0.49 0.0 0 0 99.39 190.78
  L 103.00 153.44
  A 0.57 0.56 10.6 0 1 103.72 152.95
  Q 127.42 159.75 150.88 167.38
  Q 173.35 174.70 196.32 177.62
  C 226.82 181.51 260.22 172.14 261.65 135.50
  Q 262.68 108.73 245.79 89.45
  C 226.51 67.46 195.69 60.83 167.74 61.77
  C 147.53 62.45 127.47 65.26 103.66 68.36
  Q 86.39 70.61 76.78 72.43
  Q 59.13 75.79 40.80 79.75
  A 2.47 2.45 -4.6 0 0 38.86 82.02
  Q 38.67 85.36 38.26 87.75
  Q 31.67 126.00 25.35 154.17
  Q 24.92 156.07 26.85 156.94
  Q 63.36 173.46 98.69 191.17
  Z
  M 491.04 95.60
  A 1.38 1.38 0.0 0 0 489.20 96.90
  L 489.20 387.48
  A 1.38 1.38 0.0 0 0 490.07 388.77
  L 558.02 415.64
  A 1.38 1.38 0.0 0 0 559.91 414.36
  L 559.91 120.92
  A 1.38 1.38 0.0 0 0 558.99 119.61
  L 491.04 95.60
  Z
  M 641.94 351.38
  A 0.50 0.49 3.9 0 1 642.59 350.82
  Q 713.17 375.08 785.52 392.60
  A 1.05 1.04 12.0 0 0 786.80 391.78
  C 792.76 360.23 778.26 329.91 757.85 306.64
  Q 724.25 268.35 676.03 251.20
  C 643.22 239.53 602.67 238.30 582.31 272.06
  Q 575.97 282.56 573.75 294.51
  C 563.38 350.39 592.35 406.32 637.95 437.28
  Q 666.39 456.59 700.26 459.66
  Q 715.13 461.01 727.90 458.61
  C 749.70 454.53 770.79 443.50 785.47 426.45
  A 1.41 1.41 0.0 0 0 785.26 424.41
  L 759.82 404.68
  A 0.81 0.80 53.3 0 0 759.04 404.56
  C 740.85 411.41 721.19 413.61 701.79 409.74
  C 671.93 403.77 647.71 381.51 641.94 351.38
  Z
  M 978.71 463.81
  C 975.36 459.80 969.66 456.51 966.55 453.70
  Q 945.08 434.29 927.10 411.69
  A 1.14 1.13 -39.6 0 1 927.25 410.13
  Q 953.18 387.47 983.27 372.46
  A 0.31 0.31 0.0 0 0 983.22 371.89
  L 923.49 352.25
  A 0.71 0.70 -53.9 0 0 922.86 352.35
  Q 903.97 366.71 887.21 383.60
  A 0.55 0.55 0.0 0 1 886.41 383.58
  Q 885.58 382.63 884.56 380.95
  Q 868.15 353.87 855.49 329.77
  Q 853.95 326.85 852.59 326.34
  Q 834.88 319.67 782.69 299.06
  Q 781.00 298.40 779.28 297.42
  A 0.38 0.37 -83.2 0 0 778.74 297.85
  Q 779.01 298.83 779.64 300.11
  Q 803.79 349.00 830.95 395.88
  A 0.71 0.70 51.4 0 1 830.86 396.71
  Q 800.70 429.88 773.34 466.96
  A 0.73 0.73 0.0 0 0 773.84 468.12
  Q 801.93 471.55 830.87 472.61
  A 2.68 2.67 -70.2 0 0 833.09 471.56
  Q 851.46 447.59 871.71 425.50
  A 0.59 0.58 -40.4 0 1 872.63 425.57
  Q 888.08 448.95 906.20 470.86
  A 3.18 3.16 -20.5 0 0 908.72 472.00
  Q 911.15 471.94 917.25 471.50
  Q 948.56 469.28 978.24 465.04
  A 0.76 0.75 66.1 0 0 978.71 463.81
  Z"
/>
<path fill="#f1692a" d="
  M 997.79 336.49
  Q 966.27 320.78 935.32 303.99
  C 888.99 278.86 842.21 253.71 792.59 226.68
  Q 779.50 219.55 765.14 212.36
  C 762.66 211.11 760.06 209.23 757.48 208.01
  Q 755.63 207.15 737.54 197.67
  Q 729.01 193.20 717.47 187.52
  Q 713.95 185.79 691.61 174.98
  Q 681.73 170.19 681.59 170.12
  Q 676.64 167.43 669.48 164.28
  Q 662.15 161.05 647.25 153.56
  Q 628.39 144.09 602.31 133.23
  Q 584.05 125.62 555.29 114.04
  Q 554.85 113.86 554.47 113.65
  Q 558.68 111.79 562.98 110.22
  Q 630.55 85.57 701.00 70.03
  C 795.84 49.10 894.11 45.25 989.90 60.19
  A 0.57 0.57 0.0 0 1 990.38 60.73
  L 997.79 336.49
  Z
  M 641.90 128.43
  Q 715.04 143.87 786.63 166.90
  A 0.87 0.87 0.0 0 0 787.75 166.22
  C 791.99 141.96 773.42 122.12 753.21 112.55
  C 733.99 103.44 713.08 100.84 691.23 101.06
  Q 666.33 101.30 643.25 104.59
  Q 604.53 110.11 571.64 115.26
  A 0.56 0.55 66.7 0 0 571.29 116.15
  Q 571.46 116.36 571.95 116.55
  Q 600.08 127.43 627.38 141.36
  Q 645.00 150.35 658.87 157.28
  Q 660.81 158.26 663.48 159.44
  C 666.80 160.91 669.25 162.61 672.95 164.21
  C 678.02 166.42 682.59 169.07 687.80 171.30
  C 695.72 174.68 705.00 179.71 710.72 182.28
  Q 729.96 190.92 751.76 194.69
  C 763.76 196.77 777.57 196.57 788.11 190.63
  A 0.96 0.95 -41.9 0 0 788.20 189.02
  L 762.25 170.45
  A 4.35 4.34 -26.9 0 0 759.80 169.65
  Q 740.90 169.44 721.66 164.31
  Q 689.21 155.66 657.70 139.54
  Q 651.47 136.36 643.86 131.27
  Q 642.45 130.32 641.58 128.89
  A 0.31 0.31 0.0 0 1 641.90 128.43
  Z
  M 993.54 327.70
  Q 993.48 327.32 993.30 326.95
  Q 963.68 266.03 930.83 208.81
  A 0.53 0.52 -39.4 0 1 930.89 208.21
  Q 957.49 176.08 982.68 140.55
  A 0.80 0.80 0.0 0 0 982.21 139.31
  L 922.02 125.13
  A 1.54 1.54 0.0 0 0 920.40 125.75
  Q 904.86 148.06 888.13 169.10
  A 0.41 0.41 0.0 0 1 887.48 169.08
  Q 886.09 167.19 884.86 165.14
  Q 868.95 138.77 851.04 113.90
  A 3.48 3.46 -13.7 0 0 848.72 112.50
  Q 812.54 107.45 775.14 104.76
  A 0.33 0.33 0.0 0 0 774.89 105.33
  C 796.39 126.47 815.38 150.79 832.41 175.95
  A 1.13 1.12 -38.0 0 1 832.22 177.42
  Q 814.15 193.29 794.30 205.54
  Q 786.25 210.52 777.99 214.33
  A 0.46 0.46 0.0 0 0 777.97 215.15
  L 838.79 246.63
  A 1.31 1.30 39.5 0 0 840.20 246.50
  Q 859.18 231.63 876.03 214.58
  A 0.88 0.87 -37.8 0 1 877.40 214.75
  Q 898.47 250.70 916.92 287.19
  A 5.80 5.75 0.5 0 0 919.42 289.71
  L 993.24 327.92
  A 0.21 0.21 0.0 0 0 993.54 327.70
  Z"
/>
<path fill="#ffffff" d="
  M 336.63 314.59
  A 0.41 0.41 0.0 0 1 336.03 314.95
  L 266.39 278.91
  A 2.16 2.16 0.0 0 1 265.22 276.94
  L 270.43 55.64
  A 0.87 0.87 0.0 0 1 271.33 54.79
  Q 304.74 55.97 338.90 61.17
  A 0.71 0.70 4.6 0 1 339.51 61.88
  L 338.48 153.48
  A 0.46 0.45 74.8 0 0 339.17 153.88
  Q 362.56 139.48 390.22 146.35
  C 421.67 154.15 447.57 171.28 460.93 201.33
  C 467.71 216.60 470.31 233.90 470.32 250.50
  Q 470.38 331.03 470.25 379.22
  A 0.45 0.45 0.0 0 1 469.62 379.63
  Q 434.64 364.12 400.88 347.61
  A 1.76 1.75 -77.1 0 1 399.90 346.03
  Q 400.08 306.90 400.22 239.52
  Q 400.25 225.68 398.81 220.43
  C 395.76 209.29 389.11 200.67 378.96 194.87
  C 370.13 189.82 358.56 186.63 349.40 190.71
  C 340.33 194.74 337.78 203.09 337.75 212.57
  Q 337.60 254.33 336.63 314.59
  Z"
/>
<path fill="#ffffff" d="
  M 98.69 191.17
  Q 63.36 173.46 26.85 156.94
  Q 24.92 156.07 25.35 154.17
  Q 31.67 126.00 38.26 87.75
  Q 38.67 85.36 38.86 82.02
  A 2.47 2.45 -4.6 0 1 40.80 79.75
  Q 59.13 75.79 76.78 72.43
  Q 86.39 70.61 103.66 68.36
  C 127.47 65.26 147.53 62.45 167.74 61.77
  C 195.69 60.83 226.51 67.46 245.79 89.45
  Q 262.68 108.73 261.65 135.50
  C 260.22 172.14 226.82 181.51 196.32 177.62
  Q 173.35 174.70 150.88 167.38
  Q 127.42 159.75 103.72 152.95
  A 0.57 0.56 10.6 0 0 103.00 153.44
  L 99.39 190.78
  A 0.49 0.49 0.0 0 1 98.69 191.17
  Z
  M 109.40 93.16
  A 0.77 0.76 2.5 0 0 108.65 93.84
  L 105.36 127.85
  A 1.09 1.09 0.0 0 0 106.26 129.03
  Q 114.26 130.42 148.76 136.71
  C 158.41 138.47 175.66 139.74 183.33 131.49
  Q 186.70 127.87 187.40 124.25
  C 191.32 104.05 171.94 95.84 155.77 94.20
  C 140.85 92.68 124.98 93.10 109.40 93.16
  Z"
/>
<path fill="#7cadd7" d="
  M 109.40 93.16
  C 124.98 93.10 140.85 92.68 155.77 94.20
  C 171.94 95.84 191.32 104.05 187.40 124.25
  Q 186.70 127.87 183.33 131.49
  C 175.66 139.74 158.41 138.47 148.76 136.71
  Q 114.26 130.42 106.26 129.03
  A 1.09 1.09 0.0 0 1 105.36 127.85
  L 108.65 93.84
  A 0.77 0.76 2.5 0 1 109.40 93.16
  Z"
/>
<path fill="#ffffff" d="
  M 491.04 95.60
  L 558.99 119.61
  A 1.38 1.38 0.0 0 1 559.91 120.92
  L 559.91 414.36
  A 1.38 1.38 0.0 0 1 558.02 415.64
  L 490.07 388.77
  A 1.38 1.38 0.0 0 1 489.20 387.48
  L 489.20 96.90
  A 1.38 1.38 0.0 0 1 491.04 95.60
  Z"
/>
<path fill="#ffffff" d="
  M 641.90 128.43
  A 0.31 0.31 0.0 0 0 641.58 128.89
  Q 642.45 130.32 643.86 131.27
  Q 651.47 136.36 657.70 139.54
  Q 689.21 155.66 721.66 164.31
  Q 740.90 169.44 759.80 169.65
  A 4.35 4.34 -26.9 0 1 762.25 170.45
  L 788.20 189.02
  A 0.96 0.95 -41.9 0 1 788.11 190.63
  C 777.57 196.57 763.76 196.77 751.76 194.69
  Q 729.96 190.92 710.72 182.28
  C 705.00 179.71 695.72 174.68 687.80 171.30
  C 682.59 169.07 678.02 166.42 672.95 164.21
  C 669.25 162.61 666.80 160.91 663.48 159.44
  Q 660.81 158.26 658.87 157.28
  Q 645.00 150.35 627.38 141.36
  Q 600.08 127.43 571.95 116.55
  Q 571.46 116.36 571.29 116.15
  A 0.56 0.55 66.7 0 1 571.64 115.26
  Q 604.53 110.11 643.25 104.59
  Q 666.33 101.30 691.23 101.06
  C 713.08 100.84 733.99 103.44 753.21 112.55
  C 773.42 122.12 791.99 141.96 787.75 166.22
  A 0.87 0.87 0.0 0 1 786.63 166.90
  Q 715.04 143.87 641.90 128.43
  Z
  M 722.93 134.02
  C 722.32 128.57 716.15 123.44 711.54 121.18
  Q 702.88 116.93 692.47 115.53
  Q 676.62 113.40 660.26 115.05
  C 654.62 115.62 645.97 116.91 641.51 120.61
  A 0.50 0.49 -61.3 0 0 641.76 121.48
  Q 682.35 126.53 722.34 134.56
  A 0.49 0.49 0.0 0 0 722.93 134.02
  Z"
/>
<path fill="#ffffff" d="
  M 993.54 327.70
  A 0.21 0.21 0.0 0 1 993.24 327.92
  L 919.42 289.71
  A 5.80 5.75 0.5 0 1 916.92 287.19
  Q 898.47 250.70 877.40 214.75
  A 0.88 0.87 -37.8 0 0 876.03 214.58
  Q 859.18 231.63 840.20 246.50
  A 1.31 1.30 39.5 0 1 838.79 246.63
  L 777.97 215.15
  A 0.46 0.46 0.0 0 1 777.99 214.33
  Q 786.25 210.52 794.30 205.54
  Q 814.15 193.29 832.22 177.42
  A 1.13 1.12 -38.0 0 0 832.41 175.95
  C 815.38 150.79 796.39 126.47 774.89 105.33
  A 0.33 0.33 0.0 0 1 775.14 104.76
  Q 812.54 107.45 848.72 112.50
  A 3.48 3.46 -13.7 0 1 851.04 113.90
  Q 868.95 138.77 884.86 165.14
  Q 886.09 167.19 887.48 169.08
  A 0.41 0.41 0.0 0 0 888.13 169.10
  Q 904.86 148.06 920.40 125.75
  A 1.54 1.54 0.0 0 1 922.02 125.13
  L 982.21 139.31
  A 0.80 0.80 0.0 0 1 982.68 140.55
  Q 957.49 176.08 930.89 208.21
  A 0.53 0.52 -39.4 0 0 930.83 208.81
  Q 963.68 266.03 993.30 326.95
  Q 993.48 327.32 993.54 327.70
  Z"
/>
<path fill="#f1692a" d="
  M 722.93 134.02
  A 0.49 0.49 0.0 0 1 722.34 134.56
  Q 682.35 126.53 641.76 121.48
  A 0.50 0.49 -61.3 0 1 641.51 120.61
  C 645.97 116.91 654.62 115.62 660.26 115.05
  Q 676.62 113.40 692.47 115.53
  Q 702.88 116.93 711.54 121.18
  C 716.15 123.44 722.32 128.57 722.93 134.02
  Z"
/>
<path fill="#f1692a" d="
  M 540.33 415.86
  Q 530.90 419.61 524.59 421.80
  Q 505.63 428.38 482.90 435.31
  Q 478.91 436.52 471.82 439.11
  Q 465.81 441.30 460.63 442.60
  C 452.26 444.70 442.54 447.68 436.75 449.04
  Q 425.96 451.56 420.17 453.17
  Q 412.59 455.27 403.56 457.12
  Q 373.45 463.28 368.75 464.18
  Q 193.96 497.33 22.16 452.45
  A 0.93 0.92 7.0 0 1 21.47 451.57
  L 17.22 154.40
  Q 24.30 157.88 31.51 161.23
  Q 39.78 165.07 45.81 168.05
  Q 97.67 193.61 129.00 210.04
  C 152.91 222.57 167.96 230.39 178.32 236.40
  Q 182.41 238.77 213.88 255.61
  Q 241.32 270.31 258.78 279.90
  Q 286.74 295.26 299.94 302.25
  Q 337.32 322.04 341.39 324.08
  Q 352.84 329.83 365.00 336.29
  Q 375.26 341.75 388.67 348.41
  Q 445.62 376.72 503.39 401.16
  Q 508.25 403.22 513.36 404.88
  C 517.89 406.35 521.59 408.65 526.43 410.42
  Q 533.54 413.03 540.33 415.86
  Z
  M 24.80 170.16
  L 29.14 446.44
  A 1.11 1.09 -83.9 0 0 29.97 447.49
  Q 66.72 456.75 104.54 462.96
  A 0.63 0.63 0.0 0 0 105.27 462.32
  L 103.30 382.87
  A 0.42 0.41 -83.4 0 1 103.82 382.45
  Q 128.10 389.01 150.26 394.26
  C 173.33 399.73 197.02 401.07 220.25 395.56
  Q 233.98 392.30 244.93 384.73
  C 271.01 366.70 259.75 333.46 245.11 312.67
  C 226.57 286.33 201.54 264.18 174.62 246.14
  Q 158.97 235.65 129.59 220.83
  Q 75.60 193.59 41.35 177.43
  Q 25.42 169.91 25.31 169.85
  A 0.35 0.35 0.0 0 0 24.80 170.16
  Z
  M 265.31 287.02
  L 271.59 471.63
  A 0.65 0.65 0.0 0 0 272.28 472.26
  Q 306.73 470.35 340.40 465.64
  A 1.22 1.22 0.0 0 0 341.44 464.39
  Q 340.24 431.51 339.57 412.70
  Q 339.37 407.16 340.09 405.35
  C 342.75 398.59 352.98 397.02 359.52 397.28
  Q 373.56 397.83 388.43 403.10
  C 394.00 405.08 401.70 408.86 401.94 415.99
  Q 402.79 440.81 403.18 453.86
  A 0.43 0.42 -8.3 0 0 403.71 454.25
  C 412.34 452.01 421.02 450.44 428.44 448.52
  Q 460.97 440.09 461.08 440.06
  Q 468.50 437.77 470.43 437.05
  A 1.27 1.26 79.5 0 0 471.25 435.85
  Q 471.14 430.81 470.82 417.43
  Q 470.69 412.14 465.70 409.26
  Q 458.14 404.91 452.44 402.59
  Q 419.99 389.37 384.99 380.30
  C 369.95 376.41 353.99 374.43 338.96 377.70
  A 0.50 0.50 0.0 0 1 338.36 377.23
  L 336.57 324.40
  A 1.43 1.42 -77.6 0 0 335.80 323.18
  L 265.59 286.84
  A 0.19 0.19 0.0 0 0 265.31 287.02
  Z"
/>
<path fill="#ffffff" d="
  M 25.31 169.85
  Q 25.42 169.91 41.35 177.43
  Q 75.60 193.59 129.59 220.83
  Q 158.97 235.65 174.62 246.14
  C 201.54 264.18 226.57 286.33 245.11 312.67
  C 259.75 333.46 271.01 366.70 244.93 384.73
  Q 233.98 392.30 220.25 395.56
  C 197.02 401.07 173.33 399.73 150.26 394.26
  Q 128.10 389.01 103.82 382.45
  A 0.42 0.41 -83.4 0 0 103.30 382.87
  L 105.27 462.32
  A 0.63 0.63 0.0 0 1 104.54 462.96
  Q 66.72 456.75 29.97 447.49
  A 1.11 1.09 -83.9 0 1 29.14 446.44
  L 24.80 170.16
  A 0.35 0.35 0.0 0 1 25.31 169.85
  Z
  M 100.40 259.37
  L 102.20 331.70
  A 1.44 1.44 0.0 0 0 103.19 333.04
  Q 123.03 339.58 136.24 344.02
  C 149.10 348.35 172.25 354.83 181.82 340.72
  Q 184.88 336.20 184.87 328.79
  C 184.85 307.46 168.85 292.07 151.57 281.96
  Q 145.50 278.41 134.27 273.50
  Q 126.72 270.19 100.92 259.01
  A 0.38 0.37 -79.5 0 0 100.40 259.37
  Z"
/>
<path fill="#ffffff" d="
  M 641.94 351.38
  C 647.71 381.51 671.93 403.77 701.79 409.74
  C 721.19 413.61 740.85 411.41 759.04 404.56
  A 0.81 0.80 53.3 0 1 759.82 404.68
  L 785.26 424.41
  A 1.41 1.41 0.0 0 1 785.47 426.45
  C 770.79 443.50 749.70 454.53 727.90 458.61
  Q 715.13 461.01 700.26 459.66
  Q 666.39 456.59 637.95 437.28
  C 592.35 406.32 563.38 350.39 573.75 294.51
  Q 575.97 282.56 582.31 272.06
  C 602.67 238.30 643.22 239.53 676.03 251.20
  Q 724.25 268.35 757.85 306.64
  C 778.26 329.91 792.76 360.23 786.80 391.78
  A 1.05 1.04 12.0 0 1 785.52 392.60
  Q 713.17 375.08 642.59 350.82
  A 0.50 0.49 3.9 0 0 641.94 351.38
  Z
  M 724.21 346.69
  Q 724.60 345.47 724.39 343.97
  Q 720.97 319.47 702.06 304.75
  C 687.90 293.71 660.96 284.42 648.46 303.55
  Q 644.47 309.65 642.58 317.78
  A 1.45 1.44 -74.1 0 0 643.52 319.47
  L 723.70 346.95
  A 0.40 0.39 -71.8 0 0 724.21 346.69
  Z"
/>
<path fill="#f1692a" d="
  M 100.40 259.37
  A 0.38 0.37 -79.5 0 1 100.92 259.01
  Q 126.72 270.19 134.27 273.50
  Q 145.50 278.41 151.57 281.96
  C 168.85 292.07 184.85 307.46 184.87 328.79
  Q 184.88 336.20 181.82 340.72
  C 172.25 354.83 149.10 348.35 136.24 344.02
  Q 123.03 339.58 103.19 333.04
  A 1.44 1.44 0.0 0 1 102.20 331.70
  L 100.40 259.37
  Z"
/>
<path fill="#ffffff" d="
  M 265.59 286.84
  L 335.80 323.18
  A 1.43 1.42 -77.6 0 1 336.57 324.40
  L 338.36 377.23
  A 0.50 0.50 0.0 0 0 338.96 377.70
  C 353.99 374.43 369.95 376.41 384.99 380.30
  Q 419.99 389.37 452.44 402.59
  Q 458.14 404.91 465.70 409.26
  Q 470.69 412.14 470.82 417.43
  Q 471.14 430.81 471.25 435.85
  A 1.27 1.26 79.5 0 1 470.43 437.05
  Q 468.50 437.77 461.08 440.06
  Q 460.97 440.09 428.44 448.52
  C 421.02 450.44 412.34 452.01 403.71 454.25
  A 0.43 0.42 -8.3 0 1 403.18 453.86
  Q 402.79 440.81 401.94 415.99
  C 401.70 408.86 394.00 405.08 388.43 403.10
  Q 373.56 397.83 359.52 397.28
  C 352.98 397.02 342.75 398.59 340.09 405.35
  Q 339.37 407.16 339.57 412.70
  Q 340.24 431.51 341.44 464.39
  A 1.22 1.22 0.0 0 1 340.40 465.64
  Q 306.73 470.35 272.28 472.26
  A 0.65 0.65 0.0 0 1 271.59 471.63
  L 265.31 287.02
  A 0.19 0.19 0.0 0 1 265.59 286.84
  Z"
/>
<path fill="#7cadd7" d="
  M 724.21 346.69
  A 0.40 0.39 -71.8 0 1 723.70 346.95
  L 643.52 319.47
  A 1.45 1.44 -74.1 0 1 642.58 317.78
  Q 644.47 309.65 648.46 303.55
  C 660.96 284.42 687.90 293.71 702.06 304.75
  Q 720.97 319.47 724.39 343.97
  Q 724.60 345.47 724.21 346.69
  Z"
/>
<path fill="#ffffff" d="
  M 978.71 463.81
  A 0.76 0.75 66.1 0 1 978.24 465.04
  Q 948.56 469.28 917.25 471.50
  Q 911.15 471.94 908.72 472.00
  A 3.18 3.16 -20.5 0 1 906.20 470.86
  Q 888.08 448.95 872.63 425.57
  A 0.59 0.58 -40.4 0 0 871.71 425.50
  Q 851.46 447.59 833.09 471.56
  A 2.68 2.67 -70.2 0 1 830.87 472.61
  Q 801.93 471.55 773.84 468.12
  A 0.73 0.73 0.0 0 1 773.34 466.96
  Q 800.70 429.88 830.86 396.71
  A 0.71 0.70 51.4 0 0 830.95 395.88
  Q 803.79 349.00 779.64 300.11
  Q 779.01 298.83 778.74 297.85
  A 0.38 0.37 -83.2 0 1 779.28 297.42
  Q 781.00 298.40 782.69 299.06
  Q 834.88 319.67 852.59 326.34
  Q 853.95 326.85 855.49 329.77
  Q 868.15 353.87 884.56 380.95
  Q 885.58 382.63 886.41 383.58
  A 0.55 0.55 0.0 0 0 887.21 383.60
  Q 903.97 366.71 922.86 352.35
  A 0.71 0.70 -53.9 0 1 923.49 352.25
  L 983.22 371.89
  A 0.31 0.31 0.0 0 1 983.27 372.46
  Q 953.18 387.47 927.25 410.13
  A 1.14 1.13 -39.6 0 0 927.10 411.69
  Q 945.08 434.29 966.55 453.70
  C 969.66 456.51 975.36 459.80 978.71 463.81
  Z"
/>
</svg>
